<svg width="8000" height="8000" viewBox="0 0 8000 8000" fill="none" xmlns="http://www.w3.org/2000/svg">
<g id="Frame 172" clip-path="url(#clip0_3885_5)">
<rect id="uy" x="3793" y="2911" width="126" height="39" fill="#D9D9D9"/>
<rect id="uy_2" x="3679" y="2911" width="89" height="39" fill="#D9D9D9"/>
<rect id="uy_3" x="3859" y="2645" width="89" height="39" fill="#D9D9D9"/>
<rect id="uy_4" x="3606" y="2492" width="104" height="39" fill="#D9D9D9"/>
<path id="uy_5" d="M3736 2492H3820V2545H3796.5V2518H3764V2545H3736V2492Z" fill="#D9D9D9"/>
<rect id="uy_6" x="3752" y="2645" width="104" height="39" fill="#D9D9D9"/>
<rect id="uy_7" x="4013" y="2748" width="58" height="39" fill="#D9D9D9"/>
<rect id="uy_8" x="3679" y="2645" width="67" height="39" fill="#D9D9D9"/>
<rect id="uy_9" x="3603" y="2627" width="67" height="29" fill="#D9D9D9"/>
<path id="uy_10" d="M3886 2477H3929.5V2461H3967V2477H3953V2506H3886V2477Z" fill="#D9D9D9"/>
<rect id="uy_11" x="3542.81" y="2337.11" width="89" height="39" transform="rotate(13.5541 3542.81 2337.11)" fill="#D9D9D9"/>
<rect id="uy_12" x="3435.14" y="2309" width="89" height="39" transform="rotate(13.5541 3435.14 2309)" fill="#D9D9D9"/>
<rect id="uy_13" x="3474.14" y="2202" width="89" height="39" transform="rotate(13.5541 3474.14 2202)" fill="#D9D9D9"/>
<rect id="uy_14" x="3603" y="2979" width="47" height="28" fill="#D9D9D9"/>
<rect id="uy_15" x="3679" y="2957" width="31" height="28" fill="#D9D9D9"/>
<rect id="uy_16" x="3760" y="2818" width="24" height="36" fill="#D9D9D9"/>
<rect id="uy_17" x="3710" y="2705" width="24" height="36" fill="#D9D9D9"/>
<rect id="uy_18" x="3670" y="2723" width="24" height="18" fill="#D9D9D9"/>
<rect id="uy_19" x="3879" y="2818" width="24" height="36" fill="#D9D9D9"/>
<path id="yol" d="M3925 3026.5L3942 2775.5L3993 2443.5" stroke="black" stroke-width="23" stroke-linecap="round"/>
<path id="yol_2" d="M4323 2864.5L4356.5 2716.5L4374 2562" stroke="black" stroke-width="23" stroke-linecap="round"/>
<path id="yol_3" d="M7020.5 3432.5V3250L5465.5 2988L5510 2750" stroke="black" stroke-width="23" stroke-linecap="round"/>
<path id="yol_4" d="M5435.5 2426H4777L4517 2368.5L4216.5 2274L3622 2098.5L3385.5 2020.5L3213.5 1879L3128.5 1686.5L3213.5 1433" stroke="black" stroke-width="23" stroke-linecap="round"/>
<path id="yol_5" d="M2127 2277L2528.5 1368L2794.5 1351L3005.5 1368L3240.5 1432.5" stroke="black" stroke-width="23" stroke-linecap="round"/>
<path id="yol_6" d="M8009 1613.5L7736 1457.5H7515L7198 1425.5H6707H6158.5L5687.5 1373L4910 1489L4565.5 1453L4444.5 1398L4281.5 1263V1125L4086 565.5L3964.5 414L3744.5 0.5" stroke="black" stroke-width="23" stroke-linecap="round"/>
<path id="yol_7" d="M3522 3033.5H4152.5L4465.5 3141.5L4736.5 3172.5L4767 3060.5L5409 3141.5" stroke="black" stroke-width="23" stroke-linecap="round"/>
<path id="yol_8" d="M4141 2443.5L4222 2256L4303 2070.5V1807.5L4415.5 1575.5L4442.5 1401.5" stroke="black" stroke-width="23" stroke-linecap="round"/>
<path id="magistral yol" d="M6071 8036.5L6.5 6626" stroke="black" stroke-width="93" stroke-linecap="round"/>
<path id="yol_9" d="M4978.5 7780L4838 6491.5L4722 5392L4544.5 4156.5L4462 3788V3148L4579 2665" stroke="black" stroke-width="23" stroke-linecap="round"/>
<path id="yol_10" d="M0 1902H512L928 1941H995L1396 2014H1586L1738 2026L1957.25 2090.25L3049.5 2414.5L3356.5 2463.5H3691.5L3995.5 2440H4120.5L4587.5 2656H4954.5L5138 2699L5727.5 2777.5L6022.5 2843L6458.5 2889L7009 2990.5L7992 3052.5" stroke="black" stroke-width="23" stroke-linecap="round"/>
<path id="yol_11" d="M990 1941L1233 948V212L1313 5.5" stroke="black" stroke-width="23" stroke-linecap="round"/>
<path id="yol_12" d="M2494.5 1441L2259 1397.5L1929 1379.5L1726 1259.5L1581 1122L1508.5 1006L1421.5 944.5H1229.5" stroke="black" stroke-width="23" stroke-linecap="round"/>
<path id="yol_13" d="M1734.5 1806.5L1919.5 1378.5" stroke="black" stroke-width="23" stroke-linecap="round"/>
<path id="yol_14" d="M1573 2003.5L1621.5 1872L1585 1811L1799 1314.5" stroke="black" stroke-width="23" stroke-linecap="round"/>
<path id="yol_15" d="M1663 1626L2231 1681L2361 1730M1618.5 1860L1663 1821.5L1733 1811L1927 1870.5" stroke="black" stroke-width="23" stroke-linecap="round"/>
<path id="yol_16" d="M2727 2305.5L3011 1628.5L3123 1674.5" stroke="black" stroke-width="23" stroke-linecap="round"/>
<path id="yol_17" d="M2434.5 1603L3002.5 1631.5" stroke="black" stroke-width="23" stroke-linecap="round"/>
<path id="yol_18" d="M2414 2215.5L2481 2076.5" stroke="black" stroke-width="23" stroke-linecap="round"/>
<path id="yol_19" d="M1636 6984.5L1408 6359.5V6118V5607.5L1334 5453L1287 5090L1334 4646.5L1287 4243.5L971 3411L776.5 2833L722.5 2497L534.5 1913" stroke="black" stroke-width="23" stroke-linecap="round"/>
<path id="yol_20" d="M2591.5 2282.5L2397.5 2941L2123 2835.5L1890.5 2649L1514 2596L1323.5 2571.5L1087.5 2483.5L704 2416.5" stroke="black" stroke-width="23" stroke-linecap="round"/>
<path id="yol_21" d="M3342.5 1989L3145 2429.5L3062.5 2704.5L2517 2537" stroke="black" stroke-width="23" stroke-linecap="round"/>
<path id="yol_22" d="M0 4267.5L1288 4245.5" stroke="black" stroke-width="23" stroke-linecap="round"/>
<path id="yol_23" d="M3343 7361L3366 6633.5" stroke="black" stroke-width="23" stroke-linecap="round"/>
<path id="yol_24" d="M2401 7146.5L2431 6075" stroke="black" stroke-width="23" stroke-linecap="round"/>
<path id="yol_25" d="M3587 6611.5L4842 6558" stroke="black" stroke-width="23" stroke-linecap="round"/>
<path id="yol_26" d="M4513.5 4926.5L4021.5 4954L4033.5 5443.5H4537.5L4513.5 4926.5ZM4513.5 4926.5L4650.5 4909" stroke="black" stroke-width="23" stroke-linecap="round"/>
<path id="yol_27" d="M4761 5853.5H4554L4535 5447.5" stroke="black" stroke-width="23" stroke-linecap="round"/>
<path id="yol_28" d="M2924 5506.5L2956.5 4579.5L2237 4621L2130.5 4710L1908.5 4739.5H1334" stroke="black" stroke-width="23" stroke-linecap="round"/>
<path id="yol_29" d="M8025 7252.5L7659 6859.5L7571 6812L6994.5 5998.5L6391.5 5205.5L6035.5 4729.5L5676 4114L5322.5 3524L5415.5 3145.5" stroke="black" stroke-width="23" stroke-linecap="round"/>
<path id="yol_30" d="M4541.5 4118.5L4717.5 3923L4936.5 3823L5036.5 3780L5331.5 3566L5479 3490H5774.5L6007.5 3566L7045.5 3780L8013.5 4118.5" stroke="black" stroke-width="23" stroke-linecap="round"/>
</g>
<defs>
<clipPath id="clip0_3885_5">
<rect width="8000" height="8000" fill="white"/>
</clipPath>
</defs>
</svg>
