<svg width="8000" height="8000" viewBox="0 0 8000 8000" fill="none" xmlns="http://www.w3.org/2000/svg">
<g id="Frame 172" clip-path="url(#clip0_3885_5)">
<rect id="uy" x="3793" y="2911" width="126" height="39" fill="#D9D9D9"/>
<rect id="uy_2" x="3679" y="2911" width="89" height="39" fill="#D9D9D9"/>
<rect id="uy_3" x="3859" y="2645" width="89" height="39" fill="#D9D9D9"/>
<rect id="uy_4" x="3606" y="2492" width="104" height="39" fill="#D9D9D9"/>
<path id="uy_5" d="M3736 2492H3820V2545H3796.5V2518H3764V2545H3736V2492Z" fill="#D9D9D9"/>
<rect id="uy_6" x="3752" y="2645" width="104" height="39" fill="#D9D9D9"/>
<rect id="uy_7" x="4013" y="2748" width="58" height="39" fill="#D9D9D9"/>
<rect id="uy_8" x="3679" y="2645" width="67" height="39" fill="#D9D9D9"/>
<rect id="uy_9" x="3603" y="2627" width="67" height="29" fill="#D9D9D9"/>
<path id="uy_10" d="M3886 2477H3929.5V2461H3967V2477H3953V2506H3886V2477Z" fill="#D9D9D9"/>
<rect id="uy_11" x="3542.81" y="2337.11" width="89" height="39" transform="rotate(13.5541 3542.81 2337.11)" fill="#D9D9D9"/>
<rect id="uy_12" x="3435.14" y="2309" width="89" height="39" transform="rotate(13.5541 3435.14 2309)" fill="#D9D9D9"/>
<rect id="uy_13" x="3474.14" y="2202" width="89" height="39" transform="rotate(13.5541 3474.14 2202)" fill="#D9D9D9"/>
<rect id="uy_14" x="3603" y="2979" width="47" height="28" fill="#D9D9D9"/>
<rect id="uy_15" x="3679" y="2957" width="31" height="28" fill="#D9D9D9"/>
<rect id="uy_16" x="3760" y="2818" width="24" height="36" fill="#D9D9D9"/>
<rect id="uy_17" x="3710" y="2705" width="24" height="36" fill="#D9D9D9"/>
<rect id="uy_18" x="3670" y="2723" width="24" height="18" fill="#D9D9D9"/>
<rect id="uy_19" x="3879" y="2818" width="24" height="36" fill="#D9D9D9"/>
<path id="yol" d="M3925 3026.5L3942 2775.5L3993 2443.5" stroke="black" stroke-width="23" stroke-linecap="round"/>
<path id="yol_2" d="M4323 2864.5L4356.5 2716.5L4374 2562" stroke="black" stroke-width="23" stroke-linecap="round"/>
<path id="yol_3" d="M7020.5 3432.5V3250L5465.5 2988L5510 2750" stroke="black" stroke-width="23" stroke-linecap="round"/>
<path id="yol_4" d="M5435.5 2426H4777L4517 2368.5L4216.5 2274L3622 2098.5L3385.5 2020.5L3213.5 1879L3128.5 1686.5L3213.5 1433" stroke="black" stroke-width="23" stroke-linecap="round"/>
<path id="yol_5" d="M2127 2277L2528.5 1368L2794.5 1351L3005.5 1368L3240.5 1432.5" stroke="black" stroke-width="23" stroke-linecap="round"/>
<path id="yol_6" d="M8009 1613.5L7736 1457.5H7515L7198 1425.5H6707H6158.5L5687.5 1373L4910 1489L4565.5 1453L4444.5 1398L4281.5 1263V1125L4086 565.5L3964.5 414L3744.5 0.5" stroke="black" stroke-width="23" stroke-linecap="round"/>
<path id="yol_7" d="M3522 3033.5H4152.5L4465.5 3141.5L4736.5 3172.5L4767 3060.5L5409 3141.5" stroke="black" stroke-width="23" stroke-linecap="round"/>
<path id="yol_8" d="M4141 2443.5L4222 2256L4303 2070.5V1807.5L4415.5 1575.5L4442.5 1401.5" stroke="black" stroke-width="23" stroke-linecap="round"/>
<path id="magistral yol" d="M6071 8036.5L6.5 6626" stroke="black" stroke-width="93" stroke-linecap="round"/>
<path id="yol_9" d="M4978.5 7780L4838 6491.5L4722 5392L4544.5 4156.5L4462 3788V3148L4579 2665" stroke="black" stroke-width="23" stroke-linecap="round"/>
<path id="yol_10" d="M0 1902H512L928 1941H995L1396 2014H1586L1738 2026L1957.25 2090.25L3049.5 2414.5L3356.5 2463.5H3691.5L3995.5 2440H4120.5L4587.5 2656H4954.5L5138 2699L5727.5 2777.5L6022.5 2843L6458.5 2889L7009 2990.5L7992 3052.5" stroke="black" stroke-width="23" stroke-linecap="round"/>
<path id="yol_11" d="M990 1941L1233 948V212L1313 5.5" stroke="black" stroke-width="23" stroke-linecap="round"/>
<path id="yol_12" d="M2494.5 1441L2259 1397.5L1929 1379.5L1726 1259.5L1581 1122L1508.5 1006L1421.5 944.5H1229.5" stroke="black" stroke-width="23" stroke-linecap="round"/>
<path id="yol_13" d="M1734.5 1806.5L1919.5 1378.5" stroke="black" stroke-width="23" stroke-linecap="round"/>
<path id="yol_14" d="M1573 2003.5L1621.5 1872L1585 1811L1799 1314.5" stroke="black" stroke-width="23" stroke-linecap="round"/>
<path id="yol_15" d="M1663 1626L2231 1681L2361 1730M1618.5 1860L1663 1821.5L1733 1811L1927 1870.5" stroke="black" stroke-width="23" stroke-linecap="round"/>
<path id="yol_16" d="M2727 2305.5L3011 1628.5L3123 1674.5" stroke="black" stroke-width="23" stroke-linecap="round"/>
<path id="yol_17" d="M2434.5 1603L3002.5 1631.5" stroke="black" stroke-width="23" stroke-linecap="round"/>
<path id="yol_18" d="M2414 2215.5L2481 2076.5" stroke="black" stroke-width="23" stroke-linecap="round"/>
<path id="yol_19" d="M1636 6984.5L1408 6359.5V6118V5607.5L1334 5453L1287 5090L1334 4646.5L1287 4243.5L971 3411L776.5 2833L722.5 2497L534.5 1913" stroke="black" stroke-width="23" stroke-linecap="round"/>
<path id="yol_20" d="M2591.5 2282.5L2397.5 2941L2123 2835.5L1890.5 2649L1514 2596L1323.5 2571.5L1087.5 2483.5L704 2416.5" stroke="black" stroke-width="23" stroke-linecap="round"/>
<path id="yol_21" d="M3342.5 1989L3145 2429.5L3062.5 2704.5L2517 2537" stroke="black" stroke-width="23" stroke-linecap="round"/>
<path id="yol_22" d="M0 4267.5L1288 4245.5" stroke="black" stroke-width="23" stroke-linecap="round"/>
<path id="yol_23" d="M3343 7361L3366 6633.5" stroke="black" stroke-width="23" stroke-linecap="round"/>
<path id="yol_24" d="M2401 7146.5L2431 6075" stroke="black" stroke-width="23" stroke-linecap="round"/>
<path id="yol_25" d="M3587 6611.5L4842 6558" stroke="black" stroke-width="23" stroke-linecap="round"/>
<path id="yol_26" d="M4513.5 4926.5L4021.5 4954L4033.5 5443.5H4537.5L4513.5 4926.5ZM4513.5 4926.5L4650.5 4909" stroke="black" stroke-width="23" stroke-linecap="round"/>
<path id="yol_27" d="M4761 5853.5H4554L4535 5447.5" stroke="black" stroke-width="23" stroke-linecap="round"/>
<path id="yol_28" d="M2924 5506.5L2956.5 4579.5L2237 4621L2130.5 4710L1908.5 4739.5H1334" stroke="black" stroke-width="23" stroke-linecap="round"/>
<path id="yol_29" d="M8025 7252.5L7659 6859.5L7571 6812L6994.5 5998.5L6391.5 5205.5L6035.5 4729.5L5676 4114L5322.5 3524L5415.5 3145.5" stroke="black" stroke-width="23" stroke-linecap="round"/>
<path id="yol_30" d="M4541.5 4118.5L4717.5 3923L4936.5 3823L5036.5 3780L5331.5 3566L5479 3490H5774.5L6007.5 3566L7045.5 3780L8013.5 4118.5" stroke="black" stroke-width="23" stroke-linecap="round"/>
<g id="dala">
<path d="M3505 3056H4162L4441 3167.5V3846.5L4509 4141L4217.75 4252.5L3926.5 4364H3362.5L3505 3056Z" fill="#D9D9D9"/>
<path d="M3505 3056H4162L4441 3167.5V3846.5L4509 4141L4217.75 4252.5L3926.5 4364H3362.5L3505 3056Z" fill="#D9D9D9"/>
</g>
<g id="dala_2">
<path d="M4497 3173L5346 3285.5V3378.5L5309 3465V3564.5L5048.5 3756.5L4856.5 3837L4689 3899L4552.5 4066.5L4497 3794V3614V3173Z" fill="#D9D9D9"/>
<path d="M4497 3173L5346 3285.5V3378.5L5309 3465V3564.5L5048.5 3756.5L4856.5 3837L4689 3899L4552.5 4066.5L4497 3794V3614V3173Z" fill="#D9D9D9"/>
</g>
<path id="dala_3" d="M6158 4765L7299 4689.5L7987.5 4918V7100L7664.5 6756L7299 6293L6642.5 5453.5L6158 4765Z" fill="#D9D9D9"/>
<path id="dala_4" d="M5394 3559.5L5489 3511.5H5772L6093.5 3624.5L7040.5 3796.5L7976.5 4162.5V4862L7288 4614.5L6093.5 4722L5394 3559.5Z" fill="#D9D9D9"/>
<path id="dala_5" d="M7045.5 3025.5L7995 3073V4087L7820 4022.5L7495.5 3914L7045.5 3751V3390V3025.5Z" fill="#D9D9D9"/>
<path id="dala_6" d="M4207 2252.5L3400.5 2006.5L3231.5 1866.5L3146 1677.5L3231.5 1443L3346.5 1244.5L3467.5 581.5L3810 686L4110.5 721.5L4262 1127.5V1271L4422 1407L4387 1580L4282.5 1814V2071L4207 2252.5Z" fill="#D9D9D9"/>
<path id="dala_7" d="M3941.5 406.5L4067 575.5L4104.5 709L3803.5 667.5L3481 559L3494.5 467L3016 285L2348 59.5V1H3327H3481H3730.5L3941.5 406.5Z" fill="#D9D9D9"/>
<path id="dala_8" d="M1508 1683.5L1395.5 1990.5L1219 1961L1014.5 1922L1250 966H1413.5L1493.5 1023L1568.5 1139L1710.5 1281.5L1599.5 1521.5L1508 1683.5Z" fill="#D9D9D9"/>
<path id="daryo " d="M4675.41 575L4966.5 846.5L5222 1011L5516.5 1064.5L5860 1029.5L6164 985.5L6467 900L6779 846.5L6995 821L7194.5 802L7357 900L7515 985.5L7656.5 1111L7791 1190L8002 1326.5V1431V1584.5L7744.5 1431H7638L7357 1282.5L7053 1164.5L6797.5 1083L6593.5 1064.5L6403 1083L6076 1178L5646.5 1364L4917.5 1468.5L4550.74 1436L4441.88 1380.5L4295.14 1252.5V1120.5L4212.66 900L4099.01 556.5L3990.16 408L3783 4H4212.66L4441.88 338L4675.41 575Z" fill="#67B5DB"/>
<path id="dala_9" d="M1214 219.5V937L1081.5 1517L978.5 1927.5L593 1899.5V1875L385 996L153 4H1302L1214 219.5Z" fill="#D9D9D9"/>
<path id="dala_10" d="M7979.5 901.5V1284.5L7202 734L6771.5 806L6001.5 960L5693 1003H5452L5233.5 960L5126.5 901.5L4953 734L4558.5 351.5L4307 35H5559H7979.5V901.5Z" fill="#D9D9D9"/>
<path id="dala_11" d="M1529.5 988.5L1428 918.5H1250V217.5L1336.5 3H2322V72L2367.5 86.5L2376 524.5L1728.5 1057.5L1599.5 1100L1529.5 988.5Z" fill="#D9D9D9"/>
<path id="dala_12" d="M6552.5 1408H6157L5709 1359.5V1351L5954.5 1242.5L6126 1177L6408 1094.5L6595.5 1076L6793 1089L7062.5 1177L7349 1289L7620.5 1431V1440H7518L7320.5 1419L7141 1408H6552.5Z" fill="#D9D9D9"/>
<path id="dala_13" d="M3221 1411L2983 1348.5L2784.5 1338L2519 1348.5L2487.5 1427.5L2254 1379.5L1936.5 1365L1738 1242L1614.5 1110L1738 1077L2401 561V93L3446.5 471L3392 847L3310.5 1208.5L3221 1411Z" fill="#D9D9D9"/>
<path id="dala_14" d="M5434 2400.5H4777.5L4519.5 2349.5L4232 2257.5L4316 2077.5V1812.5L4432.5 1571.5L4454 1420.5L4564.5 1477.5L4907 1506.5L5122 1477.5L5294.5 2062.5L5458.5 2202.5L5434 2400.5Z" fill="#D9D9D9"/>
<path id="dala_15" d="M7264 2985H7039L7023 2912.5L6986.5 2906L6949 2837L6943 2759V2681L6935.5 2604V2541.5L6863 2443L6820 2387.5L6800 2334.5L6935.5 2327L7075.5 2275.5L7201 2196.5L7304.5 2143.5H7331.5L7541.5 2569L7568 2645H7601.5L7632 2681L7622.5 2721.5L7596 2775L7583 2879V3006.5L7264 2985Z" fill="#D9D9D9"/>
<path id="dala_16" d="M6861 2543.5L5926.5 2514L5495 2451.5L5516 2190.5L5347 2029.5L5253.5 1762L5186 1487.71L5683.5 1394L6153.5 1447.71L6568.5 2085.5L6861 2543.5Z" fill="#D9D9D9"/>
<path id="dala_17" d="M7998 2346V2752.5V3030L7822 3019L7610.5 3007.5V2808.07L7635.5 2751.57L7657.5 2675.5L7642.5 2652L7578.5 2602L7340.5 2137L7463.5 2088L7556 2056L7657.5 2037.5L7697 2029L7777 1987.5L7851 1950.5L7990.5 1884L7998 2346Z" fill="#D9D9D9"/>
<path id="dala_18" d="M8004 1632L7994 1789.5L7981 1829L7846.5 1888L7743 1941L7623 1977L7414.5 2029.5L7255 2078.5L7120.5 2179.5L6907 2274H6780.5L6214 1445H6738H7176.5L7731.5 1476L8004 1632Z" fill="#D9D9D9"/>
<path id="dala_19" d="M7017 3751L6783.5 3690.88L6495 3640.5L5949.5 3529.38L5775.5 3464H5635H5487L5346.5 3529.38L5476 3023.88L6304.5 3152.88L6993 3260.38L7017 3751Z" fill="#D9D9D9"/>
<path id="dala_20" d="M6007.5 7638.5L7772.5 7122L7966 7261.5V7993.5H6115L6007.5 7638.5Z" fill="#D9D9D9"/>
<path id="dala_21" d="M5715 6521L6956.5 6051.5L7697.5 7100L6040 7622L5715 6521Z" fill="#D9D9D9"/>
<path id="dala_22" d="M4943.5 6794L5673 6534.5L6089 7966.5L5015 7707L4943.5 6794Z" fill="#D9D9D9"/>
<path id="dala_23" d="M3252 6011L3464.5 5980H3641V6303.75H3458.5L3276 6346.5L3252 6011Z" fill="#D9D9D9"/>
<path id="dala_24" d="M3739 6627.51L4809 6588L4889.5 7281.5H4590V7617.5L4088.5 7505.5L3780 7429.5V7211.84L3739 6627.51Z" fill="#D9D9D9"/>
<path id="dala_25" d="M3676 5934H3936L4496 5890L4554 6225.5L4581 6525.5H4402V6310.5H4285.5V6548L3654.5 6570L3676 5934Z" fill="#D9D9D9"/>
<path id="dala_26" d="M2461.29 6104L3238.18 6006.5L3283.14 6642L3319 7331L2433 7116L2461.29 6104Z" fill="#D9D9D9"/>
<path id="dala_27" d="M3007 5091.34L3954.5 4995V5447L3932 5903.5L3507 5935L3189.5 5979.5V5447H3007V5091.34Z" fill="#D9D9D9"/>
<path id="dala_28" d="M4813.5 5858.5L5077.5 5742.5L6362 5268L6943.5 6010.54L4907.5 6758L4813.5 5858.5Z" fill="#D9D9D9"/>
<path id="dala_29" d="M4715 5026.5L5914.5 4597L6348.5 5223.5L4813.5 5796L4715 5026.5Z" fill="#D9D9D9"/>
<path id="dala_30" d="M4737.5 3939L5341.5 3590L5901 4561L4702 4981.5L4554 4140.5L4737.5 3939Z" fill="#D9D9D9"/>
<path id="dala_31" d="M3007 4429.5L3999 4386.5L3972.5 4950.5L3399.5 5013L3007 5049V4429.5Z" fill="#D9D9D9"/>
<path id="dala_32" d="M2491.5 2703.5L3053 2841L3115 2600.5H3330.5L3355.5 2482H3577L3455 3424L3355.5 4369L2011 4444L2491.5 2703.5Z" fill="#D9D9D9"/>
<path id="dala_33" d="M488 1822L-5.5 1822V979L1 5H83L195.5 503.5L267.5 894L488 1822Z" fill="#D9D9D9"/>
<path id="dala_34" d="M417.616 2808L377 2860H156.5L-5.5 2876.5V2314.63V1923.5H516L633.5 2314.63L468.5 2808H417.616Z" fill="#D9D9D9"/>
<path id="dala_35" d="M1464 4463.5L1329.5 4154L790 2877L758 2465L1370 2599.5L1881 2716.5L2043 2853.5L2360.5 2980.5L2043 4313L1881 4463.5H1464Z" fill="#D9D9D9"/>
<path id="dala_36" d="M1895.5 2626.5L1333 2546.5L1094.5 2461.5L715.5 2399L562 1928.5L1001.5 1971L1382 2034.5L1624 2046L1556 2184L1835 2245.5L2521.5 2419L2377.5 2912.5L2129 2817.5L1895.5 2626.5Z" fill="#D9D9D9"/>
<rect id="dala_37" x="395" y="3654" width="154" height="185" transform="rotate(180 395 3654)" fill="#D9D9D9"/>
<rect id="dala_38" x="395" y="5487" width="154" height="185" transform="rotate(180 395 5487)" fill="#D9D9D9"/>
</g>
<defs>
<clipPath id="clip0_3885_5">
<rect width="8000" height="8000" fill="white"/>
</clipPath>
</defs>
</svg>
